<svg data-v-70ce7b86="" role="img" xmlns="http://www.w3.org/2000/svg" xmlns:xlink="http://www.w3.org/1999/xlink" viewBox="0 0 350 350" class="svg--imported sp-avatar avatar avf svg--avatar tw-max-w-[400px] tr--free tp--entj g--m avatar--dynamic tn--3 svg--avatar"><g><defs><style>.uam2bavklp-1{clip-path:url(#clippath);}.uam2bavklp-2{fill:none;}.uam2bavklp-2,.uam2bavklp-3,.uam2bavklp-4,.uam2bavklp-5,.uam2bavklp-6,.uam2bavklp-7,.uam2bavklp-8,.uam2bavklp-9,.uam2bavklp-10,.uam2bavklp-11,.uam2bavklp-12,.uam2bavklp-13,.uam2bavklp-14,.uam2bavklp-15,.uam2bavklp-16{stroke-width:0px;}.uam2bavklp-3{fill:#846651;}.uam2bavklp-3,.uam2bavklp-4,.uam2bavklp-5,.uam2bavklp-6,.uam2bavklp-7,.uam2bavklp-8,.uam2bavklp-9,.uam2bavklp-10,.uam2bavklp-11,.uam2bavklp-12,.uam2bavklp-13,.uam2bavklp-14,.uam2bavklp-15,.uam2bavklp-16{fill-rule:evenodd;}.uam2bavklp-4{fill:#2b2b2b;}.uam2bavklp-5{fill:#785d81;}.uam2bavklp-6{fill:#543042;}.uam2bavklp-7{fill:#897599;}.uam2bavklp-8{fill:#d8b69e;}.uam2bavklp-9{fill:#bc917b;}.uam2bavklp-10{fill:#ca9ab1;}.uam2bavklp-11{fill:#c7c7c6;}.uam2bavklp-12{fill:#e1c3af;}.uam2bavklp-13{fill:#ac8196;}.uam2bavklp-14{fill:#734d60;}.uam2bavklp-15{fill:#9f81b3;}.uam2bavklp-16{fill:#8f637c;}
  .avatar--face.type--entj.gender--m.tier--free.tone--1 .uam2bavklp-12 {
  fill: #fbeae2;
  }
  .avatar--face.type--entj.gender--m.tier--free.tone--1 .uam2bavklp-8 {
  fill: #e6d1c3;
  }
  .avatar--face.type--entj.gender--m.tier--free.tone--1 .uam2bavklp-9 {
  fill: #c3a491;
  }
  .avatar--face.type--entj.gender--m.tier--free.tone--1 .uam2bavklp-3 {
  fill: #9c7965;
  }
  .avatar--face.type--entj.gender--m.tier--free.tone--2 .uam2bavklp-12 {
  fill: #f6e4db;
  }
  .avatar--face.type--entj.gender--m.tier--free.tone--2 .uam2bavklp-8 {
  fill: #dbc4b6;
  }
  .avatar--face.type--entj.gender--m.tier--free.tone--2 .uam2bavklp-9 {
  fill: #b99985;
  }
  .avatar--face.type--entj.gender--m.tier--free.tone--2 .uam2bavklp-3 {
  fill: #92715d;
  }
  .avatar--face.type--entj.gender--m.tier--free.tone--3 .uam2bavklp-12 {
  fill: #eedacf;
  }
  .avatar--face.type--entj.gender--m.tier--free.tone--3 .uam2bavklp-8 {
  fill: #d4baaa;
  }
  .avatar--face.type--entj.gender--m.tier--free.tone--3 .uam2bavklp-9 {
  fill: #b18e79;
  }
  .avatar--face.type--entj.gender--m.tier--free.tone--3 .uam2bavklp-3 {
  fill: #92715d;
  }
  .avatar--face.type--entj.gender--m.tier--free.tone--4 .uam2bavklp-12 {
  fill: #e6d1c3;
  }
  .avatar--face.type--entj.gender--m.tier--free.tone--4 .uam2bavklp-8 {
  fill: #cbaf9e;
  }
  .avatar--face.type--entj.gender--m.tier--free.tone--4 .uam2bavklp-9 {
  fill: #ac8972;
  }
  .avatar--face.type--entj.gender--m.tier--free.tone--4 .uam2bavklp-3 {
  fill: #7a5e4d;
  }
  .avatar--face.type--entj.gender--m.tier--free.tone--5 .uam2bavklp-12 {
  fill: #dbc4b6;
  }
  .avatar--face.type--entj.gender--m.tier--free.tone--5 .uam2bavklp-8 {
  fill: #c3a491;
  }
  .avatar--face.type--entj.gender--m.tier--free.tone--5 .uam2bavklp-9 {
  fill: #9c7965;
  }
  .avatar--face.type--entj.gender--m.tier--free.tone--5 .uam2bavklp-3 {
  fill: #6e5444;
  }
  .avatar--face.type--entj.gender--m.tier--free.tone--6 .uam2bavklp-12 {
  fill: #d4baaa;
  }
  .avatar--face.type--entj.gender--m.tier--free.tone--6 .uam2bavklp-8 {
  fill: #b99985;
  }
  .avatar--face.type--entj.gender--m.tier--free.tone--6 .uam2bavklp-9 {
  fill: #92715d;
  }
  .avatar--face.type--entj.gender--m.tier--free.tone--6 .uam2bavklp-3 {
  fill: #634a3c;
  }
  .avatar--face.type--entj.gender--m.tier--free.tone--7 .uam2bavklp-12 {
  fill: #cbaf9e;
  }
  .avatar--face.type--entj.gender--m.tier--free.tone--7 .uam2bavklp-8 {
  fill: #b18e79;
  }
  .avatar--face.type--entj.gender--m.tier--free.tone--7 .uam2bavklp-9 {
  fill: #92715d;
  }
  .avatar--face.type--entj.gender--m.tier--free.tone--7 .uam2bavklp-3 {
  fill: #564134;
  }
  .avatar--face.type--entj.gender--m.tier--free.tone--8 .uam2bavklp-12 {
  fill: #c3a491;
  }
  .avatar--face.type--entj.gender--m.tier--free.tone--8 .uam2bavklp-8 {
  fill: #ac8972;
  }
  .avatar--face.type--entj.gender--m.tier--free.tone--8 .uam2bavklp-9 {
  fill: #7a5e4d;
  }
  .avatar--face.type--entj.gender--m.tier--free.tone--8 .uam2bavklp-3 {
  fill: #4b372c;
  }
  .avatar--face.type--entj.gender--m.tier--free.tone--9 .uam2bavklp-12 {
  fill: #b99985;
  }
  .avatar--face.type--entj.gender--m.tier--free.tone--9 .uam2bavklp-8 {
  fill: #9c7965;
  }
  .avatar--face.type--entj.gender--m.tier--free.tone--9 .uam2bavklp-9 {
  fill: #6e5444;
  }
  .avatar--face.type--entj.gender--m.tier--free.tone--9 .uam2bavklp-3 {
  fill: #3f2d23;
  }
  .avatar--face.type--entj.gender--m.tier--free.tone--10 .uam2bavklp-12 {
  fill: #b18e79;
  }
  .avatar--face.type--entj.gender--m.tier--free.tone--10 .uam2bavklp-8 {
  fill: #92715d;
  }
  .avatar--face.type--entj.gender--m.tier--free.tone--10 .uam2bavklp-9 {
  fill: #634a3c;
  }
  .avatar--face.type--entj.gender--m.tier--free.tone--10 .uam2bavklp-3 {
  fill: #39281f;
  }
  .avatar--face.type--entj.gender--m.tier--free.tone--11 .uam2bavklp-12 {
  fill: #ac8972;
  }
  .avatar--face.type--entj.gender--m.tier--free.tone--11 .uam2bavklp-8 {
  fill: #92715d;
  }
  .avatar--face.type--entj.gender--m.tier--free.tone--11 .uam2bavklp-9 {
  fill: #564134;
  }
  .avatar--face.type--entj.gender--m.tier--free.tone--11 .uam2bavklp-3 {
  fill: #37271e;
  }
</style><clipPath id="clippath"><rect class="cls-2 uam2bavklp-2" x="0" y=".1" width="350" height="350"></rect></clipPath></defs><g class="cls-1 uam2bavklp-1"><polygon class="cls-5 uam2bavklp-5" points="278.9 318.8 219.5 330.6 194.5 301.6 257.6 275.9 278.9 318.8"></polygon><polygon class="cls-16 uam2bavklp-16" points="298.1 357.2 317.1 395.4 300.5 415.3 278.1 414.9 238.7 369.1 260.4 349.5 298.1 357.2"></polygon><polygon class="cls-13 uam2bavklp-13" points="298.1 357.2 238.7 369.1 213.7 340 276.8 314.4 298.1 357.2"></polygon><polygon class="cls-7 uam2bavklp-7" points="218.6 290.6 197 310.4 195.7 359.6 206.4 402.7 237.3 423.8 234.1 350 218.6 290.6"></polygon><polygon class="cls-15 uam2bavklp-15" points="197 310.4 170.9 301.6 166.6 362.1 173.5 427.1 206.4 402.7 197 310.4"></polygon><polygon class="cls-11 uam2bavklp-11" points="227.3 324.8 168.5 327.2 169.3 344.6 229.4 338.4 227.3 324.8"></polygon><polygon class="cls-15 uam2bavklp-15" points="114.7 282.4 71.6 302.4 126.4 340.2 123.4 285.4 114.7 282.4"></polygon><polygon class="cls-5 uam2bavklp-5" points="71.6 302.4 68.1 340.2 132.4 352.1 122 327.6 71.6 302.4"></polygon><polygon class="cls-13 uam2bavklp-13" points="121.4 344.9 68.1 340.2 62.5 399.6 132.4 383.9 121.4 344.9"></polygon><polygon class="cls-6 uam2bavklp-6" points="256.2 256.1 264.1 466.4 237.3 423.8 218.6 290.6 232 275.2 256.2 256.1"></polygon><polygon class="cls-14 uam2bavklp-14" points="170.9 301.6 173.5 427.1 106.5 495.5 114.7 282.4 150.4 286.3 170.9 301.6"></polygon><polygon class="cls-8 uam2bavklp-8" points="132.4 262 138.3 242.1 132.4 213.6 123.1 212.6 115.7 220.6 114.4 210.5 110.6 207.9 110.6 141.2 223.1 112.7 259.9 231.5 220.1 244.2 204.5 275.1 197 310.4 191.5 287.3 179.8 274.9 159.9 262.3 132.4 262"></polygon><polygon class="cls-9 uam2bavklp-9" points="136.2 134.7 144.8 149 148 157.6 175.5 259.3 220.1 244.2 207.6 262 208.6 277.3 210.2 290.6 197 310.4 175.9 285.4 132.4 262 132.4 231.3 136.8 217.1 132.4 213.6 115.7 220.6 110.6 207.9 114.7 184 110.6 141.2 136.2 134.7"></polygon><polygon class="cls-3 uam2bavklp-3" points="124.1 194.5 134 199 121.4 206.3 118.8 199.7 124.1 194.5"></polygon><polygon class="cls-9 uam2bavklp-9" points="148 157.6 171.7 155.2 189.4 184 175.9 142.9 148 157.6"></polygon><polygon class="cls-9 uam2bavklp-9" points="219.6 134.5 202.1 157.2 195.7 137 219.6 134.5"></polygon><polygon class="cls-12 uam2bavklp-12" points="195.7 137 208.3 178.6 189.4 184 175.9 142.9 195.7 137"></polygon><polygon class="cls-3 uam2bavklp-3" points="208.3 178.6 202.9 189.9 189.4 184 208.3 178.6"></polygon><polygon class="cls-3 uam2bavklp-3" points="159.9 262.3 208.6 277.3 220.1 244.2 159.9 262.3"></polygon><polygon class="cls-3 uam2bavklp-3" points="237.9 196.3 170.3 216.2 171.9 222.2 240 201.7 237.9 196.3"></polygon><polygon class="cls-7 uam2bavklp-7" points="110.6 141.2 132.4 186.1 110.6 207.9 110.6 141.2"></polygon><polygon class="cls-14 uam2bavklp-14" points="49.3 191.8 61.8 186.1 68.6 176.7 83.3 144.4 90.6 106.1 104.7 84.3 96.3 56.7 146.3 51.2 180.6 34.1 200.5 61.4 221.4 79.8 237.8 101.7 253.2 115.4 259.9 126.7 278 128.8 250.7 147.8 240.3 162.2 234.3 137.3 223.1 112.7 164.1 124.1 110.6 141.2 108.5 179.1 110.6 207.9 78.6 206 50.9 212.2 53.8 202.7 49.3 191.8"></polygon><polygon class="cls-13 uam2bavklp-13" points="49.3 191.8 99.3 195 68.6 176.7 49.3 191.8"></polygon><polygon class="cls-16 uam2bavklp-16" points="99.3 195 105.8 131 85.2 106.1 68.6 176.7 99.3 195"></polygon><polygon class="cls-6 uam2bavklp-6" points="105.8 131 181.1 108.9 96.3 56.7 85.2 106.1 105.8 131"></polygon><polygon class="cls-14 uam2bavklp-14" points="181.1 108.9 221.5 96.5 221.4 79.8 180.6 34.1 164.8 97.1 181.1 108.9"></polygon><polygon class="cls-10 uam2bavklp-10" points="180.6 34.1 164.8 97.1 96.3 56.7 180.6 34.1"></polygon><polygon class="cls-16 uam2bavklp-16" points="253.2 115.4 249.5 138 221.5 96.5 221.4 79.8 253.2 115.4"></polygon><polygon class="cls-13 uam2bavklp-13" points="253.2 115.4 249.5 138 285.2 125.2 253.2 115.4"></polygon><polygon class="cls-6 uam2bavklp-6" points="285.2 125.2 285.2 138 239.5 165.7 223.1 112.7 221.5 96.5 249.5 134.7 285.2 125.2"></polygon><polygon class="cls-6 uam2bavklp-6" points="105.8 131 110.6 141.2 110.6 207.9 50.9 212.2 49.3 191.8 87.2 187.8 105.8 131"></polygon><polygon class="cls-16 uam2bavklp-16" points="221.5 96.5 181.1 108.9 105.8 131 110.6 141.2 223.1 112.7 221.5 96.5"></polygon><polygon class="cls-16 uam2bavklp-16" points="148.8 54 153.7 25.5 128.9 1.8 148.8 54"></polygon><polygon class="cls-13 uam2bavklp-13" points="148.8 54 128.9 1.8 122.5 31.4 148.8 54"></polygon><polygon class="cls-3 uam2bavklp-3" points="132.4 213.6 145.3 207.6 132.4 231.3 132.4 213.6"></polygon><polygon class="cls-16 uam2bavklp-16" points="179.8 274.9 132.4 262 103.9 251.8 114.7 282.4 197 310.4 179.8 274.9"></polygon><polygon class="cls-6 uam2bavklp-6" points="132.4 244.2 103.9 251.8 132.4 262 132.4 244.2"></polygon><polygon class="cls-16 uam2bavklp-16" points="220.1 244.2 197 310.4 256.2 256.1 220.1 244.2"></polygon><path class="cls-4 uam2bavklp-4" d="m171,156.2c0,3.1-2.5,5.7-5.7,5.7s-5.7-2.5-5.7-5.7,2.5-5.7,5.7-5.7,5.7,2.5,5.7,5.7Z"></path><path class="cls-4 uam2bavklp-4" d="m213.3,142.9c0,3.1-2.5,5.7-5.7,5.7s-5.7-2.5-5.7-5.7,2.5-5.7,5.7-5.7,5.7,2.5,5.7,5.7Z"></path><polygon class="cls-7 uam2bavklp-7" points="216.9 122.6 144.8 149 148 157.6 219.6 134.5 216.9 122.6"></polygon></g></g></svg>